# xmcd CD database file
#
# Track frame offsets:
#	150
#	12211
#	28476
#	45427
#	67077
#	87257
#	101275
#	116899
#	130506
#	142964
#	158557
#	180106
#	197705
#	213897
#	232576
#	250373
#	270943
#	271886
#	272763
#
# Disc length: 3858 seconds
#
# Revision: 0
# Processed by: cddbd v1.5.2PL0 Copyright (c) Steve Scherf et al.
# Submitted via: CDex 1.70beta2
#
DISCID=f50f1013
DTITLE=Brooks, Garth - Ultimate Hits [CD2]
DYEAR=1900
DGENRE=Country
TTITLE0=Callin Baton Rougee
TTITLE1=Two Pina Coladas
TTITLE2=The Thunder Rolls
TTITLE3=That Summer
TTITLE4=The River
TTITLE5=Beer Run
TTITLE6=Unanswered Prayers
TTITLE7=Much Too Young (To Feel This Damn Old_
TTITLE8=Waitin' For A Linvin'
TTITLE9=What She's Doing Now
TTITLE10=When You Came Back To Me Again (From Frequency)
TTITLE11=Standing Outside The Fire
TTITLE12=American Honky-Tonk Bar Association
TTITLE13=The Change
TTITLE14=Rodeo
TTITLE15=Wrapped Up In You
TTITLE16=Secret Track
TTITLE17=Secret Track
TTITLE18=Leave A Light On
EXTD=
EXTT0=
EXTT1=
EXTT2=
EXTT3=
EXTT4=
EXTT5=
EXTT6=
EXTT7=
EXTT8=
EXTT9=
EXTT10=
EXTT11=
EXTT12=
EXTT13=
EXTT14=
EXTT15=
EXTT16=
EXTT17=
EXTT18=
PLAYORDER=
